<mxfile host="app.diagrams.net" modified="2023-10-18T09:23:28.159Z" agent="Mozilla/5.0 (Windows NT 10.0; Win64; x64) AppleWebKit/537.36 (KHTML, like Gecko) Chrome/118.0.0.0 Safari/537.36" etag="vnIGCPOrWg-jkJf7nhas" version="22.0.4" type="device">
  <diagram name="1 oldal" id="fCf3P4jWbGTzityW4o33">
    <mxGraphModel dx="4472" dy="1580" grid="1" gridSize="10" guides="1" tooltips="1" connect="1" arrows="1" fold="1" page="1" pageScale="1" pageWidth="827" pageHeight="1169" math="0" shadow="0">
      <root>
        <mxCell id="0" />
        <mxCell id="1" parent="0" />
        <mxCell id="FOgnW_VNVXkGS9CRC0SK-8" value="EIO1RQ_Fesztivál" style="ellipse;whiteSpace=wrap;html=1;" vertex="1" parent="1">
          <mxGeometry x="330" y="220" width="96" height="50" as="geometry" />
        </mxCell>
        <mxCell id="FOgnW_VNVXkGS9CRC0SK-9" value="Fellépő" style="ellipse;shape=doubleEllipse;margin=3;whiteSpace=wrap;html=1;align=center;" vertex="1" parent="1">
          <mxGeometry x="-458" y="340" width="100" height="40" as="geometry" />
        </mxCell>
        <mxCell id="FOgnW_VNVXkGS9CRC0SK-11" value="Tulajdonos" style="ellipse;shape=doubleEllipse;margin=3;whiteSpace=wrap;html=1;align=center;" vertex="1" parent="1">
          <mxGeometry x="-60" y="340" width="100" height="40" as="geometry" />
        </mxCell>
        <mxCell id="FOgnW_VNVXkGS9CRC0SK-12" value="Résztvevő" style="ellipse;shape=doubleEllipse;margin=3;whiteSpace=wrap;html=1;align=center;" vertex="1" parent="1">
          <mxGeometry x="440" y="340" width="100" height="40" as="geometry" />
        </mxCell>
        <mxCell id="FOgnW_VNVXkGS9CRC0SK-15" value="Díj" style="ellipse;whiteSpace=wrap;html=1;align=center;" vertex="1" parent="1">
          <mxGeometry x="-358" y="460" width="60" height="40" as="geometry" />
        </mxCell>
        <mxCell id="FOgnW_VNVXkGS9CRC0SK-16" value="Ország" style="ellipse;whiteSpace=wrap;html=1;align=center;" vertex="1" parent="1">
          <mxGeometry x="-438" y="460" width="60" height="40" as="geometry" />
        </mxCell>
        <mxCell id="FOgnW_VNVXkGS9CRC0SK-17" value="Név" style="ellipse;whiteSpace=wrap;html=1;align=center;" vertex="1" parent="1">
          <mxGeometry x="-528" y="460" width="70" height="40" as="geometry" />
        </mxCell>
        <mxCell id="FOgnW_VNVXkGS9CRC0SK-18" value="FEL_ID" style="shape=rhombus;perimeter=rhombusPerimeter;whiteSpace=wrap;html=1;align=center;" vertex="1" parent="1">
          <mxGeometry x="-608" y="399" width="70" height="60" as="geometry" />
        </mxCell>
        <mxCell id="FOgnW_VNVXkGS9CRC0SK-19" value="" style="endArrow=none;html=1;rounded=0;entryX=0.5;entryY=1;entryDx=0;entryDy=0;exitX=0.5;exitY=0;exitDx=0;exitDy=0;" edge="1" parent="1" source="FOgnW_VNVXkGS9CRC0SK-18" target="FOgnW_VNVXkGS9CRC0SK-9">
          <mxGeometry relative="1" as="geometry">
            <mxPoint x="-238" y="460" as="sourcePoint" />
            <mxPoint x="-78" y="460" as="targetPoint" />
          </mxGeometry>
        </mxCell>
        <mxCell id="FOgnW_VNVXkGS9CRC0SK-23" value="" style="endArrow=none;html=1;rounded=0;exitX=0.5;exitY=1;exitDx=0;exitDy=0;entryX=0.5;entryY=0;entryDx=0;entryDy=0;" edge="1" parent="1" source="FOgnW_VNVXkGS9CRC0SK-9" target="FOgnW_VNVXkGS9CRC0SK-17">
          <mxGeometry relative="1" as="geometry">
            <mxPoint x="-238" y="460" as="sourcePoint" />
            <mxPoint x="-78" y="460" as="targetPoint" />
          </mxGeometry>
        </mxCell>
        <mxCell id="FOgnW_VNVXkGS9CRC0SK-25" value="" style="endArrow=none;html=1;rounded=0;exitX=0.5;exitY=1;exitDx=0;exitDy=0;entryX=0.5;entryY=0;entryDx=0;entryDy=0;" edge="1" parent="1" source="FOgnW_VNVXkGS9CRC0SK-9" target="FOgnW_VNVXkGS9CRC0SK-16">
          <mxGeometry relative="1" as="geometry">
            <mxPoint x="-238" y="460" as="sourcePoint" />
            <mxPoint x="-78" y="460" as="targetPoint" />
          </mxGeometry>
        </mxCell>
        <mxCell id="FOgnW_VNVXkGS9CRC0SK-26" value="" style="endArrow=none;html=1;rounded=0;entryX=0.5;entryY=0;entryDx=0;entryDy=0;" edge="1" parent="1" target="FOgnW_VNVXkGS9CRC0SK-15">
          <mxGeometry relative="1" as="geometry">
            <mxPoint x="-408" y="380" as="sourcePoint" />
            <mxPoint x="-78" y="460" as="targetPoint" />
          </mxGeometry>
        </mxCell>
        <mxCell id="FOgnW_VNVXkGS9CRC0SK-27" value="" style="rounded=0;whiteSpace=wrap;html=1;" vertex="1" parent="1">
          <mxGeometry x="-508" y="545" width="30" height="40" as="geometry" />
        </mxCell>
        <mxCell id="FOgnW_VNVXkGS9CRC0SK-28" value="" style="rounded=0;whiteSpace=wrap;html=1;" vertex="1" parent="1">
          <mxGeometry x="-423" y="545" width="30" height="40" as="geometry" />
        </mxCell>
        <mxCell id="FOgnW_VNVXkGS9CRC0SK-29" value="" style="rounded=0;whiteSpace=wrap;html=1;" vertex="1" parent="1">
          <mxGeometry x="-343" y="545" width="30" height="40" as="geometry" />
        </mxCell>
        <mxCell id="FOgnW_VNVXkGS9CRC0SK-30" value="" style="endArrow=none;html=1;rounded=0;exitX=0.5;exitY=1;exitDx=0;exitDy=0;entryX=0.5;entryY=0;entryDx=0;entryDy=0;" edge="1" parent="1" source="FOgnW_VNVXkGS9CRC0SK-15" target="FOgnW_VNVXkGS9CRC0SK-29">
          <mxGeometry relative="1" as="geometry">
            <mxPoint x="-238" y="460" as="sourcePoint" />
            <mxPoint x="-78" y="460" as="targetPoint" />
          </mxGeometry>
        </mxCell>
        <mxCell id="FOgnW_VNVXkGS9CRC0SK-31" value="" style="endArrow=none;html=1;rounded=0;exitX=0.5;exitY=1;exitDx=0;exitDy=0;entryX=0.5;entryY=0;entryDx=0;entryDy=0;" edge="1" parent="1" source="FOgnW_VNVXkGS9CRC0SK-16" target="FOgnW_VNVXkGS9CRC0SK-28">
          <mxGeometry relative="1" as="geometry">
            <mxPoint x="-438" y="650" as="sourcePoint" />
            <mxPoint x="-278" y="650" as="targetPoint" />
          </mxGeometry>
        </mxCell>
        <mxCell id="FOgnW_VNVXkGS9CRC0SK-32" value="" style="endArrow=none;html=1;rounded=0;exitX=0.5;exitY=1;exitDx=0;exitDy=0;entryX=0.5;entryY=0;entryDx=0;entryDy=0;" edge="1" parent="1" source="FOgnW_VNVXkGS9CRC0SK-17" target="FOgnW_VNVXkGS9CRC0SK-27">
          <mxGeometry relative="1" as="geometry">
            <mxPoint x="-488" y="650" as="sourcePoint" />
            <mxPoint x="-328" y="650" as="targetPoint" />
          </mxGeometry>
        </mxCell>
        <mxCell id="FOgnW_VNVXkGS9CRC0SK-33" value="Név" style="ellipse;whiteSpace=wrap;html=1;align=center;" vertex="1" parent="1">
          <mxGeometry x="-100" y="460" width="60" height="40" as="geometry" />
        </mxCell>
        <mxCell id="FOgnW_VNVXkGS9CRC0SK-34" value="Adószám" style="ellipse;whiteSpace=wrap;html=1;align=center;" vertex="1" parent="1">
          <mxGeometry x="-20" y="460" width="60" height="40" as="geometry" />
        </mxCell>
        <mxCell id="FOgnW_VNVXkGS9CRC0SK-35" value="Alapítás" style="ellipse;whiteSpace=wrap;html=1;align=center;" vertex="1" parent="1">
          <mxGeometry x="54" y="460" width="60" height="40" as="geometry" />
        </mxCell>
        <mxCell id="FOgnW_VNVXkGS9CRC0SK-36" value="Bevétel" style="ellipse;whiteSpace=wrap;html=1;align=center;" vertex="1" parent="1">
          <mxGeometry x="126" y="460" width="60" height="40" as="geometry" />
        </mxCell>
        <mxCell id="FOgnW_VNVXkGS9CRC0SK-40" value="T_ID" style="shape=rhombus;perimeter=rhombusPerimeter;whiteSpace=wrap;html=1;align=center;" vertex="1" parent="1">
          <mxGeometry x="-180" y="400" width="70" height="60" as="geometry" />
        </mxCell>
        <mxCell id="FOgnW_VNVXkGS9CRC0SK-41" value="" style="endArrow=none;html=1;rounded=0;entryX=0.5;entryY=0;entryDx=0;entryDy=0;" edge="1" parent="1" target="FOgnW_VNVXkGS9CRC0SK-36">
          <mxGeometry relative="1" as="geometry">
            <mxPoint x="-10" y="380" as="sourcePoint" />
            <mxPoint x="290" y="430" as="targetPoint" />
          </mxGeometry>
        </mxCell>
        <mxCell id="FOgnW_VNVXkGS9CRC0SK-42" value="" style="endArrow=none;html=1;rounded=0;entryX=0.5;entryY=0;entryDx=0;entryDy=0;" edge="1" parent="1" target="FOgnW_VNVXkGS9CRC0SK-35">
          <mxGeometry relative="1" as="geometry">
            <mxPoint x="-10" y="380" as="sourcePoint" />
            <mxPoint x="186" y="420" as="targetPoint" />
          </mxGeometry>
        </mxCell>
        <mxCell id="FOgnW_VNVXkGS9CRC0SK-43" value="" style="endArrow=none;html=1;rounded=0;entryX=0.5;entryY=0;entryDx=0;entryDy=0;" edge="1" parent="1" target="FOgnW_VNVXkGS9CRC0SK-34">
          <mxGeometry relative="1" as="geometry">
            <mxPoint x="-10" y="380" as="sourcePoint" />
            <mxPoint x="140" y="420" as="targetPoint" />
          </mxGeometry>
        </mxCell>
        <mxCell id="FOgnW_VNVXkGS9CRC0SK-44" value="" style="endArrow=none;html=1;rounded=0;exitX=0.5;exitY=1;exitDx=0;exitDy=0;entryX=0.5;entryY=0;entryDx=0;entryDy=0;" edge="1" parent="1" source="FOgnW_VNVXkGS9CRC0SK-11" target="FOgnW_VNVXkGS9CRC0SK-33">
          <mxGeometry relative="1" as="geometry">
            <mxPoint x="-46" y="420" as="sourcePoint" />
            <mxPoint x="114" y="420" as="targetPoint" />
          </mxGeometry>
        </mxCell>
        <mxCell id="FOgnW_VNVXkGS9CRC0SK-45" value="" style="endArrow=none;html=1;rounded=0;exitX=0.5;exitY=1;exitDx=0;exitDy=0;entryX=0.5;entryY=0;entryDx=0;entryDy=0;" edge="1" parent="1" source="FOgnW_VNVXkGS9CRC0SK-11" target="FOgnW_VNVXkGS9CRC0SK-40">
          <mxGeometry relative="1" as="geometry">
            <mxPoint x="-60" y="410" as="sourcePoint" />
            <mxPoint x="100" y="410" as="targetPoint" />
          </mxGeometry>
        </mxCell>
        <mxCell id="FOgnW_VNVXkGS9CRC0SK-46" value="" style="rounded=0;whiteSpace=wrap;html=1;" vertex="1" parent="1">
          <mxGeometry x="141" y="545" width="30" height="40" as="geometry" />
        </mxCell>
        <mxCell id="FOgnW_VNVXkGS9CRC0SK-47" value="" style="rounded=0;whiteSpace=wrap;html=1;" vertex="1" parent="1">
          <mxGeometry x="69" y="545" width="30" height="40" as="geometry" />
        </mxCell>
        <mxCell id="FOgnW_VNVXkGS9CRC0SK-48" value="" style="rounded=0;whiteSpace=wrap;html=1;" vertex="1" parent="1">
          <mxGeometry x="-5" y="545" width="30" height="40" as="geometry" />
        </mxCell>
        <mxCell id="FOgnW_VNVXkGS9CRC0SK-49" value="" style="rounded=0;whiteSpace=wrap;html=1;" vertex="1" parent="1">
          <mxGeometry x="-85" y="545" width="30" height="40" as="geometry" />
        </mxCell>
        <mxCell id="FOgnW_VNVXkGS9CRC0SK-50" value="" style="endArrow=none;html=1;rounded=0;exitX=0.5;exitY=1;exitDx=0;exitDy=0;entryX=0.5;entryY=0;entryDx=0;entryDy=0;" edge="1" parent="1" source="FOgnW_VNVXkGS9CRC0SK-36" target="FOgnW_VNVXkGS9CRC0SK-46">
          <mxGeometry relative="1" as="geometry">
            <mxPoint x="54" y="640" as="sourcePoint" />
            <mxPoint x="214" y="640" as="targetPoint" />
          </mxGeometry>
        </mxCell>
        <mxCell id="FOgnW_VNVXkGS9CRC0SK-51" value="" style="endArrow=none;html=1;rounded=0;exitX=0.5;exitY=1;exitDx=0;exitDy=0;entryX=0.5;entryY=0;entryDx=0;entryDy=0;" edge="1" parent="1" source="FOgnW_VNVXkGS9CRC0SK-35" target="FOgnW_VNVXkGS9CRC0SK-47">
          <mxGeometry relative="1" as="geometry">
            <mxPoint x="25" y="620" as="sourcePoint" />
            <mxPoint x="185" y="620" as="targetPoint" />
          </mxGeometry>
        </mxCell>
        <mxCell id="FOgnW_VNVXkGS9CRC0SK-52" value="" style="endArrow=none;html=1;rounded=0;exitX=0.5;exitY=1;exitDx=0;exitDy=0;entryX=0.5;entryY=0;entryDx=0;entryDy=0;" edge="1" parent="1" source="FOgnW_VNVXkGS9CRC0SK-34" target="FOgnW_VNVXkGS9CRC0SK-48">
          <mxGeometry relative="1" as="geometry">
            <mxPoint x="-6" y="640" as="sourcePoint" />
            <mxPoint x="154" y="640" as="targetPoint" />
          </mxGeometry>
        </mxCell>
        <mxCell id="FOgnW_VNVXkGS9CRC0SK-53" value="" style="endArrow=none;html=1;rounded=0;exitX=0.5;exitY=0;exitDx=0;exitDy=0;entryX=0.5;entryY=1;entryDx=0;entryDy=0;" edge="1" parent="1" source="FOgnW_VNVXkGS9CRC0SK-49" target="FOgnW_VNVXkGS9CRC0SK-33">
          <mxGeometry relative="1" as="geometry">
            <mxPoint x="-50" y="430" as="sourcePoint" />
            <mxPoint x="110" y="430" as="targetPoint" />
          </mxGeometry>
        </mxCell>
        <mxCell id="FOgnW_VNVXkGS9CRC0SK-57" value="Lakcím" style="ellipse;whiteSpace=wrap;html=1;align=center;" vertex="1" parent="1">
          <mxGeometry x="540" y="460" width="60" height="40" as="geometry" />
        </mxCell>
        <mxCell id="FOgnW_VNVXkGS9CRC0SK-58" value="Diákig." style="ellipse;whiteSpace=wrap;html=1;align=center;" vertex="1" parent="1">
          <mxGeometry x="460" y="460" width="60" height="40" as="geometry" />
        </mxCell>
        <mxCell id="FOgnW_VNVXkGS9CRC0SK-59" value="Név" style="ellipse;whiteSpace=wrap;html=1;align=center;" vertex="1" parent="1">
          <mxGeometry x="380" y="460" width="60" height="40" as="geometry" />
        </mxCell>
        <mxCell id="FOgnW_VNVXkGS9CRC0SK-60" value="R_ID" style="shape=rhombus;perimeter=rhombusPerimeter;whiteSpace=wrap;html=1;align=center;" vertex="1" parent="1">
          <mxGeometry x="300" y="400" width="70" height="60" as="geometry" />
        </mxCell>
        <mxCell id="FOgnW_VNVXkGS9CRC0SK-61" value="" style="endArrow=none;html=1;rounded=0;exitX=0.5;exitY=0;exitDx=0;exitDy=0;entryX=0.5;entryY=1;entryDx=0;entryDy=0;" edge="1" parent="1" source="FOgnW_VNVXkGS9CRC0SK-57" target="FOgnW_VNVXkGS9CRC0SK-12">
          <mxGeometry relative="1" as="geometry">
            <mxPoint x="510" y="410" as="sourcePoint" />
            <mxPoint x="670" y="410" as="targetPoint" />
          </mxGeometry>
        </mxCell>
        <mxCell id="FOgnW_VNVXkGS9CRC0SK-62" value="" style="endArrow=none;html=1;rounded=0;exitX=0.5;exitY=0;exitDx=0;exitDy=0;" edge="1" parent="1" source="FOgnW_VNVXkGS9CRC0SK-58">
          <mxGeometry relative="1" as="geometry">
            <mxPoint x="500" y="430" as="sourcePoint" />
            <mxPoint x="490" y="380" as="targetPoint" />
          </mxGeometry>
        </mxCell>
        <mxCell id="FOgnW_VNVXkGS9CRC0SK-63" value="" style="endArrow=none;html=1;rounded=0;exitX=0.5;exitY=0;exitDx=0;exitDy=0;" edge="1" parent="1" source="FOgnW_VNVXkGS9CRC0SK-59">
          <mxGeometry relative="1" as="geometry">
            <mxPoint x="470" y="420" as="sourcePoint" />
            <mxPoint x="490" y="380" as="targetPoint" />
          </mxGeometry>
        </mxCell>
        <mxCell id="FOgnW_VNVXkGS9CRC0SK-64" value="" style="endArrow=none;html=1;rounded=0;exitX=0.5;exitY=0;exitDx=0;exitDy=0;entryX=0.5;entryY=1;entryDx=0;entryDy=0;" edge="1" parent="1" source="FOgnW_VNVXkGS9CRC0SK-60" target="FOgnW_VNVXkGS9CRC0SK-12">
          <mxGeometry relative="1" as="geometry">
            <mxPoint x="380" y="420" as="sourcePoint" />
            <mxPoint x="540" y="420" as="targetPoint" />
          </mxGeometry>
        </mxCell>
        <mxCell id="FOgnW_VNVXkGS9CRC0SK-66" value="" style="rounded=0;whiteSpace=wrap;html=1;" vertex="1" parent="1">
          <mxGeometry x="475" y="545" width="30" height="40" as="geometry" />
        </mxCell>
        <mxCell id="FOgnW_VNVXkGS9CRC0SK-67" value="" style="rounded=0;whiteSpace=wrap;html=1;" vertex="1" parent="1">
          <mxGeometry x="395" y="545" width="30" height="40" as="geometry" />
        </mxCell>
        <mxCell id="FOgnW_VNVXkGS9CRC0SK-69" value="" style="endArrow=none;html=1;rounded=0;exitX=0.5;exitY=1;exitDx=0;exitDy=0;entryX=0.5;entryY=0;entryDx=0;entryDy=0;" edge="1" parent="1" source="FOgnW_VNVXkGS9CRC0SK-58" target="FOgnW_VNVXkGS9CRC0SK-66">
          <mxGeometry relative="1" as="geometry">
            <mxPoint x="490" y="660" as="sourcePoint" />
            <mxPoint x="650" y="660" as="targetPoint" />
          </mxGeometry>
        </mxCell>
        <mxCell id="FOgnW_VNVXkGS9CRC0SK-70" value="" style="endArrow=none;html=1;rounded=0;exitX=0.5;exitY=1;exitDx=0;exitDy=0;entryX=0.5;entryY=0;entryDx=0;entryDy=0;" edge="1" parent="1" source="FOgnW_VNVXkGS9CRC0SK-59" target="FOgnW_VNVXkGS9CRC0SK-67">
          <mxGeometry relative="1" as="geometry">
            <mxPoint x="420" y="690" as="sourcePoint" />
            <mxPoint x="580" y="690" as="targetPoint" />
          </mxGeometry>
        </mxCell>
        <mxCell id="FOgnW_VNVXkGS9CRC0SK-71" value="Bár" style="ellipse;shape=doubleEllipse;margin=3;whiteSpace=wrap;html=1;align=center;" vertex="1" parent="1">
          <mxGeometry x="920" y="340" width="100" height="40" as="geometry" />
        </mxCell>
        <mxCell id="FOgnW_VNVXkGS9CRC0SK-72" value="Cég" style="ellipse;whiteSpace=wrap;html=1;align=center;" vertex="1" parent="1">
          <mxGeometry x="1020" y="460" width="60" height="40" as="geometry" />
        </mxCell>
        <mxCell id="FOgnW_VNVXkGS9CRC0SK-74" value="Név" style="ellipse;whiteSpace=wrap;html=1;align=center;" vertex="1" parent="1">
          <mxGeometry x="860" y="460" width="60" height="40" as="geometry" />
        </mxCell>
        <mxCell id="FOgnW_VNVXkGS9CRC0SK-75" value="B_ID" style="shape=rhombus;perimeter=rhombusPerimeter;whiteSpace=wrap;html=1;align=center;" vertex="1" parent="1">
          <mxGeometry x="780" y="398" width="70" height="60" as="geometry" />
        </mxCell>
        <mxCell id="FOgnW_VNVXkGS9CRC0SK-76" value="" style="endArrow=none;html=1;rounded=0;exitX=0.5;exitY=0;exitDx=0;exitDy=0;entryX=0.5;entryY=1;entryDx=0;entryDy=0;" edge="1" parent="1" source="FOgnW_VNVXkGS9CRC0SK-72" target="FOgnW_VNVXkGS9CRC0SK-71">
          <mxGeometry relative="1" as="geometry">
            <mxPoint x="990" y="410" as="sourcePoint" />
            <mxPoint x="1150" y="410" as="targetPoint" />
          </mxGeometry>
        </mxCell>
        <mxCell id="FOgnW_VNVXkGS9CRC0SK-77" value="" style="endArrow=none;html=1;rounded=0;exitX=0.5;exitY=0;exitDx=0;exitDy=0;" edge="1" parent="1">
          <mxGeometry relative="1" as="geometry">
            <mxPoint x="970" y="459.9999999999998" as="sourcePoint" />
            <mxPoint x="970" y="380" as="targetPoint" />
          </mxGeometry>
        </mxCell>
        <mxCell id="FOgnW_VNVXkGS9CRC0SK-78" value="" style="endArrow=none;html=1;rounded=0;exitX=0.5;exitY=0;exitDx=0;exitDy=0;" edge="1" parent="1" source="FOgnW_VNVXkGS9CRC0SK-74">
          <mxGeometry relative="1" as="geometry">
            <mxPoint x="950" y="420" as="sourcePoint" />
            <mxPoint x="970" y="380" as="targetPoint" />
          </mxGeometry>
        </mxCell>
        <mxCell id="FOgnW_VNVXkGS9CRC0SK-79" value="" style="endArrow=none;html=1;rounded=0;exitX=0.5;exitY=0;exitDx=0;exitDy=0;entryX=0.5;entryY=1;entryDx=0;entryDy=0;" edge="1" parent="1" source="FOgnW_VNVXkGS9CRC0SK-75" target="FOgnW_VNVXkGS9CRC0SK-71">
          <mxGeometry relative="1" as="geometry">
            <mxPoint x="860" y="420" as="sourcePoint" />
            <mxPoint x="1020" y="420" as="targetPoint" />
          </mxGeometry>
        </mxCell>
        <mxCell id="FOgnW_VNVXkGS9CRC0SK-80" value="" style="rounded=0;whiteSpace=wrap;html=1;" vertex="1" parent="1">
          <mxGeometry x="1035" y="545" width="30" height="40" as="geometry" />
        </mxCell>
        <mxCell id="FOgnW_VNVXkGS9CRC0SK-81" value="" style="rounded=0;whiteSpace=wrap;html=1;" vertex="1" parent="1">
          <mxGeometry x="955" y="545" width="30" height="40" as="geometry" />
        </mxCell>
        <mxCell id="FOgnW_VNVXkGS9CRC0SK-82" value="" style="rounded=0;whiteSpace=wrap;html=1;" vertex="1" parent="1">
          <mxGeometry x="875" y="545" width="30" height="40" as="geometry" />
        </mxCell>
        <mxCell id="FOgnW_VNVXkGS9CRC0SK-83" value="" style="endArrow=none;html=1;rounded=0;exitX=0.5;exitY=1;exitDx=0;exitDy=0;entryX=0.5;entryY=0;entryDx=0;entryDy=0;" edge="1" parent="1" source="FOgnW_VNVXkGS9CRC0SK-72" target="FOgnW_VNVXkGS9CRC0SK-80">
          <mxGeometry relative="1" as="geometry">
            <mxPoint x="1087" y="680" as="sourcePoint" />
            <mxPoint x="1247" y="680" as="targetPoint" />
          </mxGeometry>
        </mxCell>
        <mxCell id="FOgnW_VNVXkGS9CRC0SK-84" value="" style="endArrow=none;html=1;rounded=0;exitX=0.5;exitY=1;exitDx=0;exitDy=0;entryX=0.5;entryY=0;entryDx=0;entryDy=0;" edge="1" parent="1" target="FOgnW_VNVXkGS9CRC0SK-81">
          <mxGeometry relative="1" as="geometry">
            <mxPoint x="970" y="499.9999999999998" as="sourcePoint" />
            <mxPoint x="1130" y="660" as="targetPoint" />
          </mxGeometry>
        </mxCell>
        <mxCell id="FOgnW_VNVXkGS9CRC0SK-85" value="" style="endArrow=none;html=1;rounded=0;exitX=0.5;exitY=1;exitDx=0;exitDy=0;entryX=0.5;entryY=0;entryDx=0;entryDy=0;" edge="1" parent="1" source="FOgnW_VNVXkGS9CRC0SK-74" target="FOgnW_VNVXkGS9CRC0SK-82">
          <mxGeometry relative="1" as="geometry">
            <mxPoint x="900" y="690" as="sourcePoint" />
            <mxPoint x="1060" y="690" as="targetPoint" />
          </mxGeometry>
        </mxCell>
        <mxCell id="FOgnW_VNVXkGS9CRC0SK-86" value="Házszám" style="ellipse;whiteSpace=wrap;html=1;align=center;" vertex="1" parent="1">
          <mxGeometry x="650" y="600" width="60" height="40" as="geometry" />
        </mxCell>
        <mxCell id="FOgnW_VNVXkGS9CRC0SK-87" value="Utca" style="ellipse;whiteSpace=wrap;html=1;align=center;" vertex="1" parent="1">
          <mxGeometry x="580" y="600" width="60" height="40" as="geometry" />
        </mxCell>
        <mxCell id="FOgnW_VNVXkGS9CRC0SK-88" value="Település" style="ellipse;whiteSpace=wrap;html=1;align=center;" vertex="1" parent="1">
          <mxGeometry x="505" y="600" width="60" height="40" as="geometry" />
        </mxCell>
        <mxCell id="FOgnW_VNVXkGS9CRC0SK-89" value="" style="endArrow=none;html=1;rounded=0;entryX=0.5;entryY=0;entryDx=0;entryDy=0;" edge="1" parent="1" target="FOgnW_VNVXkGS9CRC0SK-86">
          <mxGeometry relative="1" as="geometry">
            <mxPoint x="570" y="500" as="sourcePoint" />
            <mxPoint x="780" y="554.41" as="targetPoint" />
          </mxGeometry>
        </mxCell>
        <mxCell id="FOgnW_VNVXkGS9CRC0SK-90" value="" style="endArrow=none;html=1;rounded=0;exitX=0.5;exitY=1;exitDx=0;exitDy=0;entryX=0.5;entryY=0;entryDx=0;entryDy=0;" edge="1" parent="1" source="FOgnW_VNVXkGS9CRC0SK-57" target="FOgnW_VNVXkGS9CRC0SK-87">
          <mxGeometry relative="1" as="geometry">
            <mxPoint x="630" y="545" as="sourcePoint" />
            <mxPoint x="790" y="545" as="targetPoint" />
          </mxGeometry>
        </mxCell>
        <mxCell id="FOgnW_VNVXkGS9CRC0SK-91" value="" style="endArrow=none;html=1;rounded=0;exitX=0.5;exitY=1;exitDx=0;exitDy=0;entryX=0.5;entryY=0;entryDx=0;entryDy=0;" edge="1" parent="1" source="FOgnW_VNVXkGS9CRC0SK-57" target="FOgnW_VNVXkGS9CRC0SK-88">
          <mxGeometry relative="1" as="geometry">
            <mxPoint x="610" y="554.41" as="sourcePoint" />
            <mxPoint x="770" y="554.41" as="targetPoint" />
          </mxGeometry>
        </mxCell>
        <mxCell id="FOgnW_VNVXkGS9CRC0SK-92" value="" style="rounded=0;whiteSpace=wrap;html=1;" vertex="1" parent="1">
          <mxGeometry x="665" y="680" width="30" height="40" as="geometry" />
        </mxCell>
        <mxCell id="FOgnW_VNVXkGS9CRC0SK-93" value="" style="rounded=0;whiteSpace=wrap;html=1;" vertex="1" parent="1">
          <mxGeometry x="595" y="680" width="30" height="40" as="geometry" />
        </mxCell>
        <mxCell id="FOgnW_VNVXkGS9CRC0SK-94" value="" style="rounded=0;whiteSpace=wrap;html=1;" vertex="1" parent="1">
          <mxGeometry x="520" y="680" width="30" height="40" as="geometry" />
        </mxCell>
        <mxCell id="FOgnW_VNVXkGS9CRC0SK-96" value="" style="endArrow=none;html=1;rounded=0;exitX=0.5;exitY=1;exitDx=0;exitDy=0;entryX=0.5;entryY=0;entryDx=0;entryDy=0;" edge="1" parent="1" source="FOgnW_VNVXkGS9CRC0SK-86" target="FOgnW_VNVXkGS9CRC0SK-92">
          <mxGeometry relative="1" as="geometry">
            <mxPoint x="750" y="690" as="sourcePoint" />
            <mxPoint x="910" y="690" as="targetPoint" />
          </mxGeometry>
        </mxCell>
        <mxCell id="FOgnW_VNVXkGS9CRC0SK-97" value="" style="endArrow=none;html=1;rounded=0;exitX=0.5;exitY=1;exitDx=0;exitDy=0;entryX=0.5;entryY=0;entryDx=0;entryDy=0;" edge="1" parent="1" source="FOgnW_VNVXkGS9CRC0SK-87" target="FOgnW_VNVXkGS9CRC0SK-93">
          <mxGeometry relative="1" as="geometry">
            <mxPoint x="320" y="650" as="sourcePoint" />
            <mxPoint x="480" y="650" as="targetPoint" />
          </mxGeometry>
        </mxCell>
        <mxCell id="FOgnW_VNVXkGS9CRC0SK-98" value="" style="endArrow=none;html=1;rounded=0;entryX=0.5;entryY=1;entryDx=0;entryDy=0;exitX=0.5;exitY=0;exitDx=0;exitDy=0;" edge="1" parent="1" source="FOgnW_VNVXkGS9CRC0SK-94" target="FOgnW_VNVXkGS9CRC0SK-88">
          <mxGeometry relative="1" as="geometry">
            <mxPoint x="300" y="718.8199999999999" as="sourcePoint" />
            <mxPoint x="460" y="718.8199999999999" as="targetPoint" />
          </mxGeometry>
        </mxCell>
        <mxCell id="FOgnW_VNVXkGS9CRC0SK-99" value="Ital" style="ellipse;shape=doubleEllipse;margin=3;whiteSpace=wrap;html=1;align=center;" vertex="1" parent="1">
          <mxGeometry x="940" y="460" width="60" height="40" as="geometry" />
        </mxCell>
        <mxCell id="FOgnW_VNVXkGS9CRC0SK-101" value="Nyelvtudás" style="ellipse;shape=doubleEllipse;margin=3;whiteSpace=wrap;html=1;align=center;" vertex="1" parent="1">
          <mxGeometry x="1700" y="339" width="100" height="40" as="geometry" />
        </mxCell>
        <mxCell id="FOgnW_VNVXkGS9CRC0SK-102" value="Szint" style="ellipse;whiteSpace=wrap;html=1;align=center;" vertex="1" parent="1">
          <mxGeometry x="1800" y="459" width="60" height="40" as="geometry" />
        </mxCell>
        <mxCell id="FOgnW_VNVXkGS9CRC0SK-103" value="Nyelv" style="ellipse;whiteSpace=wrap;html=1;align=center;" vertex="1" parent="1">
          <mxGeometry x="1720" y="459" width="60" height="40" as="geometry" />
        </mxCell>
        <mxCell id="FOgnW_VNVXkGS9CRC0SK-104" value="NY_ID" style="shape=rhombus;perimeter=rhombusPerimeter;whiteSpace=wrap;html=1;align=center;" vertex="1" parent="1">
          <mxGeometry x="1630" y="400" width="70" height="60" as="geometry" />
        </mxCell>
        <mxCell id="FOgnW_VNVXkGS9CRC0SK-105" value="" style="endArrow=none;html=1;rounded=0;exitX=0.5;exitY=0;exitDx=0;exitDy=0;entryX=0.5;entryY=1;entryDx=0;entryDy=0;" edge="1" parent="1" source="FOgnW_VNVXkGS9CRC0SK-102" target="FOgnW_VNVXkGS9CRC0SK-101">
          <mxGeometry relative="1" as="geometry">
            <mxPoint x="1770" y="409" as="sourcePoint" />
            <mxPoint x="1930" y="409" as="targetPoint" />
          </mxGeometry>
        </mxCell>
        <mxCell id="FOgnW_VNVXkGS9CRC0SK-107" value="" style="endArrow=none;html=1;rounded=0;exitX=0.5;exitY=0;exitDx=0;exitDy=0;" edge="1" parent="1" source="FOgnW_VNVXkGS9CRC0SK-103">
          <mxGeometry relative="1" as="geometry">
            <mxPoint x="1730" y="419" as="sourcePoint" />
            <mxPoint x="1750" y="379" as="targetPoint" />
          </mxGeometry>
        </mxCell>
        <mxCell id="FOgnW_VNVXkGS9CRC0SK-108" value="" style="endArrow=none;html=1;rounded=0;exitX=0.5;exitY=0;exitDx=0;exitDy=0;entryX=0.5;entryY=1;entryDx=0;entryDy=0;" edge="1" parent="1" source="FOgnW_VNVXkGS9CRC0SK-104" target="FOgnW_VNVXkGS9CRC0SK-101">
          <mxGeometry relative="1" as="geometry">
            <mxPoint x="1640" y="419" as="sourcePoint" />
            <mxPoint x="1800" y="419" as="targetPoint" />
          </mxGeometry>
        </mxCell>
        <mxCell id="FOgnW_VNVXkGS9CRC0SK-109" value="" style="rounded=0;whiteSpace=wrap;html=1;" vertex="1" parent="1">
          <mxGeometry x="1815" y="544" width="30" height="40" as="geometry" />
        </mxCell>
        <mxCell id="FOgnW_VNVXkGS9CRC0SK-111" value="" style="rounded=0;whiteSpace=wrap;html=1;" vertex="1" parent="1">
          <mxGeometry x="1735" y="544" width="30" height="40" as="geometry" />
        </mxCell>
        <mxCell id="FOgnW_VNVXkGS9CRC0SK-112" value="" style="endArrow=none;html=1;rounded=0;exitX=0.5;exitY=1;exitDx=0;exitDy=0;entryX=0.5;entryY=0;entryDx=0;entryDy=0;" edge="1" parent="1" source="FOgnW_VNVXkGS9CRC0SK-102" target="FOgnW_VNVXkGS9CRC0SK-109">
          <mxGeometry relative="1" as="geometry">
            <mxPoint x="1867" y="679" as="sourcePoint" />
            <mxPoint x="2027" y="679" as="targetPoint" />
          </mxGeometry>
        </mxCell>
        <mxCell id="FOgnW_VNVXkGS9CRC0SK-114" value="" style="endArrow=none;html=1;rounded=0;exitX=0.5;exitY=1;exitDx=0;exitDy=0;entryX=0.5;entryY=0;entryDx=0;entryDy=0;" edge="1" parent="1" source="FOgnW_VNVXkGS9CRC0SK-103" target="FOgnW_VNVXkGS9CRC0SK-111">
          <mxGeometry relative="1" as="geometry">
            <mxPoint x="1680" y="689" as="sourcePoint" />
            <mxPoint x="1840" y="689" as="targetPoint" />
          </mxGeometry>
        </mxCell>
        <mxCell id="FOgnW_VNVXkGS9CRC0SK-154" value="Alkalmazott" style="ellipse;shape=doubleEllipse;margin=3;whiteSpace=wrap;html=1;align=center;" vertex="1" parent="1">
          <mxGeometry x="1350" y="340" width="100" height="40" as="geometry" />
        </mxCell>
        <mxCell id="FOgnW_VNVXkGS9CRC0SK-155" value="Fizetés" style="ellipse;whiteSpace=wrap;html=1;align=center;" vertex="1" parent="1">
          <mxGeometry x="1450" y="460" width="60" height="40" as="geometry" />
        </mxCell>
        <mxCell id="FOgnW_VNVXkGS9CRC0SK-156" value="Név" style="ellipse;whiteSpace=wrap;html=1;align=center;" vertex="1" parent="1">
          <mxGeometry x="1290" y="460" width="60" height="40" as="geometry" />
        </mxCell>
        <mxCell id="FOgnW_VNVXkGS9CRC0SK-157" value="A_ID" style="shape=rhombus;perimeter=rhombusPerimeter;whiteSpace=wrap;html=1;align=center;" vertex="1" parent="1">
          <mxGeometry x="1210" y="400" width="70" height="60" as="geometry" />
        </mxCell>
        <mxCell id="FOgnW_VNVXkGS9CRC0SK-158" value="" style="endArrow=none;html=1;rounded=0;exitX=0.5;exitY=0;exitDx=0;exitDy=0;entryX=0.5;entryY=1;entryDx=0;entryDy=0;" edge="1" parent="1" source="FOgnW_VNVXkGS9CRC0SK-155" target="FOgnW_VNVXkGS9CRC0SK-154">
          <mxGeometry relative="1" as="geometry">
            <mxPoint x="1420" y="410" as="sourcePoint" />
            <mxPoint x="1580" y="410" as="targetPoint" />
          </mxGeometry>
        </mxCell>
        <mxCell id="FOgnW_VNVXkGS9CRC0SK-159" value="" style="endArrow=none;html=1;rounded=0;exitX=0.5;exitY=0;exitDx=0;exitDy=0;" edge="1" parent="1">
          <mxGeometry relative="1" as="geometry">
            <mxPoint x="1400" y="459.9999999999998" as="sourcePoint" />
            <mxPoint x="1400" y="380" as="targetPoint" />
          </mxGeometry>
        </mxCell>
        <mxCell id="FOgnW_VNVXkGS9CRC0SK-160" value="" style="endArrow=none;html=1;rounded=0;exitX=0.5;exitY=0;exitDx=0;exitDy=0;" edge="1" parent="1" source="FOgnW_VNVXkGS9CRC0SK-156">
          <mxGeometry relative="1" as="geometry">
            <mxPoint x="1380" y="420" as="sourcePoint" />
            <mxPoint x="1400" y="380" as="targetPoint" />
          </mxGeometry>
        </mxCell>
        <mxCell id="FOgnW_VNVXkGS9CRC0SK-161" value="" style="endArrow=none;html=1;rounded=0;exitX=0.5;exitY=0;exitDx=0;exitDy=0;entryX=0.5;entryY=1;entryDx=0;entryDy=0;" edge="1" parent="1" source="FOgnW_VNVXkGS9CRC0SK-157" target="FOgnW_VNVXkGS9CRC0SK-154">
          <mxGeometry relative="1" as="geometry">
            <mxPoint x="1290" y="420" as="sourcePoint" />
            <mxPoint x="1450" y="420" as="targetPoint" />
          </mxGeometry>
        </mxCell>
        <mxCell id="FOgnW_VNVXkGS9CRC0SK-162" value="" style="rounded=0;whiteSpace=wrap;html=1;" vertex="1" parent="1">
          <mxGeometry x="1465" y="545" width="30" height="40" as="geometry" />
        </mxCell>
        <mxCell id="FOgnW_VNVXkGS9CRC0SK-163" value="" style="rounded=0;whiteSpace=wrap;html=1;" vertex="1" parent="1">
          <mxGeometry x="1385" y="545" width="30" height="40" as="geometry" />
        </mxCell>
        <mxCell id="FOgnW_VNVXkGS9CRC0SK-164" value="" style="rounded=0;whiteSpace=wrap;html=1;" vertex="1" parent="1">
          <mxGeometry x="1305" y="545" width="30" height="40" as="geometry" />
        </mxCell>
        <mxCell id="FOgnW_VNVXkGS9CRC0SK-165" value="" style="endArrow=none;html=1;rounded=0;exitX=0.5;exitY=1;exitDx=0;exitDy=0;entryX=0.5;entryY=0;entryDx=0;entryDy=0;" edge="1" parent="1" source="FOgnW_VNVXkGS9CRC0SK-155" target="FOgnW_VNVXkGS9CRC0SK-162">
          <mxGeometry relative="1" as="geometry">
            <mxPoint x="1517" y="680" as="sourcePoint" />
            <mxPoint x="1677" y="680" as="targetPoint" />
          </mxGeometry>
        </mxCell>
        <mxCell id="FOgnW_VNVXkGS9CRC0SK-166" value="" style="endArrow=none;html=1;rounded=0;exitX=0.5;exitY=1;exitDx=0;exitDy=0;entryX=0.5;entryY=0;entryDx=0;entryDy=0;" edge="1" parent="1" target="FOgnW_VNVXkGS9CRC0SK-163">
          <mxGeometry relative="1" as="geometry">
            <mxPoint x="1400" y="499.9999999999998" as="sourcePoint" />
            <mxPoint x="1560" y="660" as="targetPoint" />
          </mxGeometry>
        </mxCell>
        <mxCell id="FOgnW_VNVXkGS9CRC0SK-167" value="" style="endArrow=none;html=1;rounded=0;exitX=0.5;exitY=1;exitDx=0;exitDy=0;entryX=0.5;entryY=0;entryDx=0;entryDy=0;" edge="1" parent="1" source="FOgnW_VNVXkGS9CRC0SK-156" target="FOgnW_VNVXkGS9CRC0SK-164">
          <mxGeometry relative="1" as="geometry">
            <mxPoint x="1330" y="690" as="sourcePoint" />
            <mxPoint x="1490" y="690" as="targetPoint" />
          </mxGeometry>
        </mxCell>
        <mxCell id="FOgnW_VNVXkGS9CRC0SK-168" value="Műszak" style="ellipse;shape=doubleEllipse;margin=3;whiteSpace=wrap;html=1;align=center;" vertex="1" parent="1">
          <mxGeometry x="1370" y="460" width="60" height="40" as="geometry" />
        </mxCell>
        <mxCell id="FOgnW_VNVXkGS9CRC0SK-169" value="" style="endArrow=none;html=1;rounded=0;entryX=0.5;entryY=0;entryDx=0;entryDy=0;" edge="1" parent="1" target="FOgnW_VNVXkGS9CRC0SK-101">
          <mxGeometry relative="1" as="geometry">
            <mxPoint x="370" y="270" as="sourcePoint" />
            <mxPoint x="1520" y="280" as="targetPoint" />
          </mxGeometry>
        </mxCell>
        <mxCell id="FOgnW_VNVXkGS9CRC0SK-170" value="" style="endArrow=none;html=1;rounded=0;entryX=0.5;entryY=0;entryDx=0;entryDy=0;" edge="1" parent="1" target="FOgnW_VNVXkGS9CRC0SK-154">
          <mxGeometry relative="1" as="geometry">
            <mxPoint x="370" y="270" as="sourcePoint" />
            <mxPoint x="1195" y="290" as="targetPoint" />
          </mxGeometry>
        </mxCell>
        <mxCell id="FOgnW_VNVXkGS9CRC0SK-171" value="" style="endArrow=none;html=1;rounded=0;entryX=0.5;entryY=0;entryDx=0;entryDy=0;" edge="1" parent="1" target="FOgnW_VNVXkGS9CRC0SK-71">
          <mxGeometry relative="1" as="geometry">
            <mxPoint x="370" y="270" as="sourcePoint" />
            <mxPoint x="785" y="280" as="targetPoint" />
          </mxGeometry>
        </mxCell>
        <mxCell id="FOgnW_VNVXkGS9CRC0SK-172" value="" style="endArrow=none;html=1;rounded=0;exitX=0.5;exitY=0;exitDx=0;exitDy=0;" edge="1" parent="1" source="FOgnW_VNVXkGS9CRC0SK-12">
          <mxGeometry relative="1" as="geometry">
            <mxPoint x="240" y="310" as="sourcePoint" />
            <mxPoint x="370" y="270" as="targetPoint" />
          </mxGeometry>
        </mxCell>
        <mxCell id="FOgnW_VNVXkGS9CRC0SK-173" value="" style="endArrow=none;html=1;rounded=0;exitX=0.5;exitY=0;exitDx=0;exitDy=0;" edge="1" parent="1" source="FOgnW_VNVXkGS9CRC0SK-11">
          <mxGeometry relative="1" as="geometry">
            <mxPoint x="220" y="320" as="sourcePoint" />
            <mxPoint x="370" y="270" as="targetPoint" />
          </mxGeometry>
        </mxCell>
        <mxCell id="FOgnW_VNVXkGS9CRC0SK-174" value="" style="endArrow=none;html=1;rounded=0;exitX=0.5;exitY=0;exitDx=0;exitDy=0;entryX=0.5;entryY=1;entryDx=0;entryDy=0;" edge="1" parent="1" source="FOgnW_VNVXkGS9CRC0SK-9" target="FOgnW_VNVXkGS9CRC0SK-8">
          <mxGeometry relative="1" as="geometry">
            <mxPoint x="170" y="310" as="sourcePoint" />
            <mxPoint x="330" y="310" as="targetPoint" />
          </mxGeometry>
        </mxCell>
        <mxCell id="FOgnW_VNVXkGS9CRC0SK-175" value="Közvélemény" style="shape=rhombus;perimeter=rhombusPerimeter;whiteSpace=wrap;html=1;align=center;" vertex="1" parent="1">
          <mxGeometry x="1872" y="399" width="70" height="60" as="geometry" />
        </mxCell>
        <mxCell id="FOgnW_VNVXkGS9CRC0SK-203" style="edgeStyle=orthogonalEdgeStyle;rounded=0;orthogonalLoop=1;jettySize=auto;html=1;entryX=0.5;entryY=1;entryDx=0;entryDy=0;dashed=1;dashPattern=8 8;" edge="1" parent="1" source="FOgnW_VNVXkGS9CRC0SK-176" target="FOgnW_VNVXkGS9CRC0SK-190">
          <mxGeometry relative="1" as="geometry">
            <Array as="points">
              <mxPoint x="-285" y="640" />
              <mxPoint x="-985" y="640" />
            </Array>
          </mxGeometry>
        </mxCell>
        <mxCell id="FOgnW_VNVXkGS9CRC0SK-176" value="FEL_FESZ" style="shape=rhombus;perimeter=rhombusPerimeter;whiteSpace=wrap;html=1;align=center;" vertex="1" parent="1">
          <mxGeometry x="-320" y="390" width="70" height="60" as="geometry" />
        </mxCell>
        <mxCell id="FOgnW_VNVXkGS9CRC0SK-179" value="FESZ_T" style="shape=rhombus;perimeter=rhombusPerimeter;whiteSpace=wrap;html=1;align=center;" vertex="1" parent="1">
          <mxGeometry x="186" y="400" width="70" height="60" as="geometry" />
        </mxCell>
        <mxCell id="FOgnW_VNVXkGS9CRC0SK-181" value="FESZ_R" style="shape=rhombus;perimeter=rhombusPerimeter;whiteSpace=wrap;html=1;align=center;" vertex="1" parent="1">
          <mxGeometry x="625" y="390" width="70" height="60" as="geometry" />
        </mxCell>
        <mxCell id="FOgnW_VNVXkGS9CRC0SK-183" value="FESZ_B" style="shape=rhombus;perimeter=rhombusPerimeter;whiteSpace=wrap;html=1;align=center;" vertex="1" parent="1">
          <mxGeometry x="1080" y="390" width="70" height="60" as="geometry" />
        </mxCell>
        <mxCell id="FOgnW_VNVXkGS9CRC0SK-184" value="B_A" style="shape=rhombus;perimeter=rhombusPerimeter;whiteSpace=wrap;html=1;align=center;" vertex="1" parent="1">
          <mxGeometry x="1524" y="400" width="70" height="60" as="geometry" />
        </mxCell>
        <mxCell id="FOgnW_VNVXkGS9CRC0SK-186" value="Fesztivál" style="ellipse;shape=doubleEllipse;margin=3;whiteSpace=wrap;html=1;align=center;" vertex="1" parent="1">
          <mxGeometry x="-870" y="339" width="100" height="40" as="geometry" />
        </mxCell>
        <mxCell id="FOgnW_VNVXkGS9CRC0SK-187" value="Év" style="ellipse;whiteSpace=wrap;html=1;align=center;" vertex="1" parent="1">
          <mxGeometry x="-770" y="459" width="60" height="40" as="geometry" />
        </mxCell>
        <mxCell id="FOgnW_VNVXkGS9CRC0SK-188" value="Helyszín" style="ellipse;whiteSpace=wrap;html=1;align=center;" vertex="1" parent="1">
          <mxGeometry x="-850" y="459" width="60" height="40" as="geometry" />
        </mxCell>
        <mxCell id="FOgnW_VNVXkGS9CRC0SK-189" value="Név" style="ellipse;whiteSpace=wrap;html=1;align=center;" vertex="1" parent="1">
          <mxGeometry x="-940" y="459" width="70" height="40" as="geometry" />
        </mxCell>
        <mxCell id="FOgnW_VNVXkGS9CRC0SK-190" value="FESZ_ID" style="shape=rhombus;perimeter=rhombusPerimeter;whiteSpace=wrap;html=1;align=center;" vertex="1" parent="1">
          <mxGeometry x="-1020" y="398" width="70" height="60" as="geometry" />
        </mxCell>
        <mxCell id="FOgnW_VNVXkGS9CRC0SK-191" value="" style="endArrow=none;html=1;rounded=0;entryX=0.5;entryY=1;entryDx=0;entryDy=0;exitX=0.5;exitY=0;exitDx=0;exitDy=0;" edge="1" parent="1" source="FOgnW_VNVXkGS9CRC0SK-190" target="FOgnW_VNVXkGS9CRC0SK-186">
          <mxGeometry relative="1" as="geometry">
            <mxPoint x="-650" y="459" as="sourcePoint" />
            <mxPoint x="-490" y="459" as="targetPoint" />
          </mxGeometry>
        </mxCell>
        <mxCell id="FOgnW_VNVXkGS9CRC0SK-192" value="" style="endArrow=none;html=1;rounded=0;exitX=0.5;exitY=1;exitDx=0;exitDy=0;entryX=0.5;entryY=0;entryDx=0;entryDy=0;" edge="1" parent="1" source="FOgnW_VNVXkGS9CRC0SK-186" target="FOgnW_VNVXkGS9CRC0SK-189">
          <mxGeometry relative="1" as="geometry">
            <mxPoint x="-650" y="459" as="sourcePoint" />
            <mxPoint x="-490" y="459" as="targetPoint" />
          </mxGeometry>
        </mxCell>
        <mxCell id="FOgnW_VNVXkGS9CRC0SK-193" value="" style="endArrow=none;html=1;rounded=0;exitX=0.5;exitY=1;exitDx=0;exitDy=0;entryX=0.5;entryY=0;entryDx=0;entryDy=0;" edge="1" parent="1" source="FOgnW_VNVXkGS9CRC0SK-186" target="FOgnW_VNVXkGS9CRC0SK-188">
          <mxGeometry relative="1" as="geometry">
            <mxPoint x="-650" y="459" as="sourcePoint" />
            <mxPoint x="-490" y="459" as="targetPoint" />
          </mxGeometry>
        </mxCell>
        <mxCell id="FOgnW_VNVXkGS9CRC0SK-194" value="" style="endArrow=none;html=1;rounded=0;entryX=0.5;entryY=0;entryDx=0;entryDy=0;" edge="1" parent="1" target="FOgnW_VNVXkGS9CRC0SK-187">
          <mxGeometry relative="1" as="geometry">
            <mxPoint x="-820" y="379" as="sourcePoint" />
            <mxPoint x="-490" y="459" as="targetPoint" />
          </mxGeometry>
        </mxCell>
        <mxCell id="FOgnW_VNVXkGS9CRC0SK-195" value="" style="rounded=0;whiteSpace=wrap;html=1;" vertex="1" parent="1">
          <mxGeometry x="-920" y="544" width="30" height="40" as="geometry" />
        </mxCell>
        <mxCell id="FOgnW_VNVXkGS9CRC0SK-196" value="" style="rounded=0;whiteSpace=wrap;html=1;" vertex="1" parent="1">
          <mxGeometry x="-835" y="544" width="30" height="40" as="geometry" />
        </mxCell>
        <mxCell id="FOgnW_VNVXkGS9CRC0SK-197" value="" style="rounded=0;whiteSpace=wrap;html=1;" vertex="1" parent="1">
          <mxGeometry x="-755" y="544" width="30" height="40" as="geometry" />
        </mxCell>
        <mxCell id="FOgnW_VNVXkGS9CRC0SK-198" value="" style="endArrow=none;html=1;rounded=0;exitX=0.5;exitY=1;exitDx=0;exitDy=0;entryX=0.5;entryY=0;entryDx=0;entryDy=0;" edge="1" parent="1" source="FOgnW_VNVXkGS9CRC0SK-187" target="FOgnW_VNVXkGS9CRC0SK-197">
          <mxGeometry relative="1" as="geometry">
            <mxPoint x="-650" y="459" as="sourcePoint" />
            <mxPoint x="-490" y="459" as="targetPoint" />
          </mxGeometry>
        </mxCell>
        <mxCell id="FOgnW_VNVXkGS9CRC0SK-199" value="" style="endArrow=none;html=1;rounded=0;exitX=0.5;exitY=1;exitDx=0;exitDy=0;entryX=0.5;entryY=0;entryDx=0;entryDy=0;" edge="1" parent="1" source="FOgnW_VNVXkGS9CRC0SK-188" target="FOgnW_VNVXkGS9CRC0SK-196">
          <mxGeometry relative="1" as="geometry">
            <mxPoint x="-850" y="649" as="sourcePoint" />
            <mxPoint x="-690" y="649" as="targetPoint" />
          </mxGeometry>
        </mxCell>
        <mxCell id="FOgnW_VNVXkGS9CRC0SK-200" value="" style="endArrow=none;html=1;rounded=0;exitX=0.5;exitY=1;exitDx=0;exitDy=0;entryX=0.5;entryY=0;entryDx=0;entryDy=0;" edge="1" parent="1" source="FOgnW_VNVXkGS9CRC0SK-189" target="FOgnW_VNVXkGS9CRC0SK-195">
          <mxGeometry relative="1" as="geometry">
            <mxPoint x="-900" y="649" as="sourcePoint" />
            <mxPoint x="-740" y="649" as="targetPoint" />
          </mxGeometry>
        </mxCell>
        <mxCell id="FOgnW_VNVXkGS9CRC0SK-202" value="" style="endArrow=none;html=1;rounded=0;exitX=0.5;exitY=0;exitDx=0;exitDy=0;" edge="1" parent="1" source="FOgnW_VNVXkGS9CRC0SK-186">
          <mxGeometry relative="1" as="geometry">
            <mxPoint x="-378" y="190" as="sourcePoint" />
            <mxPoint x="380" y="270" as="targetPoint" />
          </mxGeometry>
        </mxCell>
        <mxCell id="FOgnW_VNVXkGS9CRC0SK-204" value="" style="endArrow=none;html=1;rounded=0;entryX=0.5;entryY=0;entryDx=0;entryDy=0;" edge="1" parent="1" target="FOgnW_VNVXkGS9CRC0SK-176">
          <mxGeometry relative="1" as="geometry">
            <mxPoint x="-410" y="380" as="sourcePoint" />
            <mxPoint x="-310" y="480" as="targetPoint" />
          </mxGeometry>
        </mxCell>
        <mxCell id="FOgnW_VNVXkGS9CRC0SK-205" value="" style="endArrow=none;html=1;rounded=0;entryX=0.5;entryY=0;entryDx=0;entryDy=0;" edge="1" parent="1" target="FOgnW_VNVXkGS9CRC0SK-179">
          <mxGeometry relative="1" as="geometry">
            <mxPoint x="-10" y="380" as="sourcePoint" />
            <mxPoint x="350" y="490" as="targetPoint" />
          </mxGeometry>
        </mxCell>
        <mxCell id="FOgnW_VNVXkGS9CRC0SK-206" value="" style="endArrow=none;html=1;rounded=0;entryX=0.5;entryY=0;entryDx=0;entryDy=0;" edge="1" parent="1" target="FOgnW_VNVXkGS9CRC0SK-181">
          <mxGeometry relative="1" as="geometry">
            <mxPoint x="490" y="380" as="sourcePoint" />
            <mxPoint x="730" y="480" as="targetPoint" />
          </mxGeometry>
        </mxCell>
        <mxCell id="FOgnW_VNVXkGS9CRC0SK-207" value="" style="endArrow=none;html=1;rounded=0;exitX=0.5;exitY=0;exitDx=0;exitDy=0;" edge="1" parent="1" source="FOgnW_VNVXkGS9CRC0SK-183">
          <mxGeometry relative="1" as="geometry">
            <mxPoint x="570" y="490" as="sourcePoint" />
            <mxPoint x="980" y="380" as="targetPoint" />
          </mxGeometry>
        </mxCell>
        <mxCell id="FOgnW_VNVXkGS9CRC0SK-208" value="" style="endArrow=none;html=1;rounded=0;entryX=0.5;entryY=0;entryDx=0;entryDy=0;" edge="1" parent="1" target="FOgnW_VNVXkGS9CRC0SK-184">
          <mxGeometry relative="1" as="geometry">
            <mxPoint x="1400" y="380" as="sourcePoint" />
            <mxPoint x="1540" y="470" as="targetPoint" />
          </mxGeometry>
        </mxCell>
        <mxCell id="FOgnW_VNVXkGS9CRC0SK-209" value="" style="endArrow=none;html=1;rounded=0;entryX=0.5;entryY=0;entryDx=0;entryDy=0;" edge="1" parent="1" target="FOgnW_VNVXkGS9CRC0SK-175">
          <mxGeometry relative="1" as="geometry">
            <mxPoint x="1750" y="380" as="sourcePoint" />
            <mxPoint x="1840" y="460" as="targetPoint" />
          </mxGeometry>
        </mxCell>
      </root>
    </mxGraphModel>
  </diagram>
</mxfile>
